<svg width="106" height="314" viewBox="0 0 106 314" fill="none" xmlns="http://www.w3.org/2000/svg">
<path d="M74.2234 228H31.7766C29.1386 228 27 230.192 27 232.895V309.105C27 311.808 29.1386 314 31.7766 314H74.2234C76.8614 314 79 311.808 79 309.105V232.895C79 230.192 76.8614 228 74.2234 228Z" fill="url(#paint0_linear_795_4984)"/>
<path d="M75 235.326V302.668C75.0001 302.997 74.9639 303.325 74.8922 303.645C74.6877 304.598 74.1872 305.449 73.4726 306.058C72.758 306.668 71.8715 307 70.9578 307H35.0422C33.9701 307 32.942 306.544 32.1839 305.733C31.4259 304.922 31 303.821 31 302.674V235.326C31 234.179 31.4259 233.078 32.1839 232.267C32.942 231.456 33.9701 231 35.0422 231H70.9578C71.4886 231 72.0143 231.112 72.5047 231.329C72.9951 231.547 73.4407 231.865 73.8161 232.267C74.1914 232.669 74.4892 233.146 74.6923 233.671C74.8954 234.196 75 234.758 75 235.326Z" fill="url(#paint1_linear_795_4984)"/>
<path d="M46.261 312C46.1918 312 46.1256 311.991 46.0767 311.975C46.0278 311.959 46.0002 311.937 46 311.914V309.086C46.0002 309.063 46.0278 309.041 46.0767 309.025C46.1256 309.009 46.1918 309 46.261 309H59.7391C59.8082 309 59.8745 309.009 59.9234 309.025C59.9723 309.041 59.9998 309.063 60 309.086V311.914C59.9998 311.937 59.9722 311.959 59.9233 311.975C59.8745 311.991 59.8082 312 59.7391 312H46.261Z" fill="#F8F8F8"/>
<g clip-path="url(#clip0_795_4984)">
<path d="M106 53C106 55.0372 105.884 57.0578 105.652 59.0453C104.029 73.3719 96.6919 85.9594 85.9759 94.5056C76.9163 101.694 65.455 106 53 106C23.7341 106 0 82.2659 0 53C0 48.9588 0.447188 45.0169 1.30844 41.2406C6.65812 17.6225 27.7753 0 53 0C65.0409 0 76.1378 4.02469 85.0484 10.7822C96.6422 19.5934 104.493 33.0919 105.801 48.4453C105.934 49.9359 106 51.4597 106 53Z" fill="url(#paint2_linear_795_4984)"/>
<path d="M72.5108 22.8231L71.0202 25.5559C69.6786 28.0238 66.5814 28.9181 64.1467 27.5434L53.5964 21.6637C50.8636 20.2559 47.5842 20.6203 45.2158 22.5747C40.8598 26.1688 34.2845 32.1809 32.7442 36.8184C30.3592 43.9072 26.9805 43.0625 23.7839 42.0687C20.5708 41.0419 19.3783 39.8659 19.047 37.6631C18.7158 35.4603 14.4923 33.6053 12.6208 36.6528C12.0577 37.5803 11.5939 38.4912 11.1798 39.3194C10.418 40.8763 10.0039 42.5325 9.68922 44.2219C9.54016 45.0003 9.17578 45.8616 8.23172 46.11C7.02266 46.4412 3.52797 44.6359 1.30859 41.2406C6.65828 17.6225 27.7755 0 53.0002 0L55.6667 5.83C56.0808 6.7575 56.8427 7.46969 57.7702 7.83406L69.0327 12.3225C70.1092 12.7531 70.9208 13.6475 71.2686 14.7572L72.8255 19.9247C73.107 20.9019 72.9911 21.9453 72.5108 22.8231ZM105.801 48.4453L100.087 49.2237C97.7852 49.5384 95.7645 47.6669 95.897 45.3647L95.9798 43.8244C96.0295 42.7147 95.6486 41.6381 94.9033 40.8266C92.0711 37.7294 88.212 32.4294 85.0983 27.9741C81.852 23.32 81.5208 17.225 84.2536 12.2231L85.0486 10.7822C96.6423 19.5934 104.493 33.0919 105.801 48.4453ZM105.652 59.0453C104.029 73.3719 96.692 85.9594 85.9761 94.5056H85.9264L84.2702 85.6116C83.9886 84.1209 83.1273 82.7959 81.8686 81.9347L80.0964 80.6925C78.8377 79.8147 78.258 78.2081 78.7217 76.7175L79.8645 73.0075L79.2848 69.7778C78.9702 67.9062 80.0302 66.1009 81.8189 65.5047L87.152 63.6994C88.0298 63.4178 88.8083 62.9209 89.4377 62.2584L93.3795 58.1675C95.0192 56.4947 97.487 55.9481 99.6898 56.7597L105.636 59.0287C105.636 59.0287 105.636 59.0453 105.652 59.0453ZM66.747 44.8512L68.867 49.7869C70.8214 54.3416 69.1983 59.625 65.008 62.2916L59.327 65.9187L53.7455 75.2931V82.5144L50.582 92.8991C50.582 92.8991 43.6092 97.5863 39.4355 90.2325V87.5328C39.4355 86.2906 38.8227 85.1147 37.8123 84.4025L36.8517 83.7234C35.5102 82.7794 34.6655 81.3053 34.4998 79.6822L33.7877 72.08C33.6717 70.7881 33.1583 69.5459 32.3136 68.5522L29.5642 65.2397C28.322 63.7491 28.587 61.5131 30.1605 60.3537L31.3861 59.4594C32.1811 58.8631 32.8602 58.1178 33.357 57.2566L39.8164 46.1431L45.1495 43.725C46.0439 43.3275 47.0377 43.2612 47.9652 43.5759L50.2177 44.3047C51.5427 44.7353 53.0002 44.4372 54.027 43.4931L55.203 42.4497C55.9152 41.8037 56.8427 41.4559 57.8033 41.4559H61.5795C63.832 41.4559 65.8692 42.7975 66.747 44.8512Z" fill="#979797"/>
</g>
<path fill-rule="evenodd" clip-rule="evenodd" d="M53.25 214.5C52.4216 214.5 51.75 213.829 51.75 213V209.934C51.75 209.105 52.4216 208.434 53.25 208.434C54.0784 208.434 54.75 209.105 54.75 209.934V213C54.75 213.829 54.0784 214.5 53.25 214.5ZM53.25 199.167C52.4216 199.167 51.75 198.495 51.75 197.667V191.533C51.75 190.705 52.4216 190.033 53.25 190.033C54.0784 190.033 54.75 190.705 54.75 191.533V197.667C54.75 198.495 54.0784 199.167 53.25 199.167ZM53.25 180.767C52.4216 180.767 51.75 180.095 51.75 179.267V173.133C51.75 172.305 52.4216 171.633 53.25 171.633C54.0784 171.633 54.75 172.305 54.75 173.133V179.267C54.75 180.095 54.0784 180.767 53.25 180.767ZM53.25 162.366C52.4216 162.366 51.75 161.695 51.75 160.866V154.733C51.75 153.904 52.4216 153.233 53.25 153.233C54.0784 153.233 54.75 153.904 54.75 154.733V160.866C54.75 161.695 54.0784 162.366 53.25 162.366ZM53.25 143.966C52.4216 143.966 51.75 143.294 51.75 142.466V136.333C51.75 135.504 52.4216 134.833 53.25 134.833C54.0784 134.833 54.75 135.504 54.75 136.333V142.466C54.75 143.294 54.0784 143.966 53.25 143.966ZM53.25 125.566C52.4216 125.566 51.75 124.894 51.75 124.066V120.999C51.75 120.171 52.4216 119.499 53.25 119.499C54.0784 119.499 54.75 120.171 54.75 120.999V124.066C54.75 124.894 54.0784 125.566 53.25 125.566Z" fill="#FFFEFE"/>
<defs>
<linearGradient id="paint0_linear_795_4984" x1="53.1688" y1="334.565" x2="52.3939" y2="56.2142" gradientUnits="userSpaceOnUse">
<stop/>
<stop offset="0.670833" stop-opacity="0.49"/>
<stop offset="1" stop-opacity="0"/>
</linearGradient>
<linearGradient id="paint1_linear_795_4984" x1="62.5595" y1="234.845" x2="18.0519" y2="263.743" gradientUnits="userSpaceOnUse">
<stop stop-color="#C7EF4E"/>
<stop offset="1" stop-color="#0DB528"/>
</linearGradient>
<linearGradient id="paint2_linear_795_4984" x1="53" y1="0" x2="53" y2="106" gradientUnits="userSpaceOnUse">
<stop stop-color="#F8F8F8"/>
<stop offset="0.0001" stop-color="#F2F2F2"/>
<stop offset="1" stop-color="#A19D9D"/>
</linearGradient>
<clipPath id="clip0_795_4984">
<rect width="106" height="106" fill="white"/>
</clipPath>
</defs>
</svg>
