<svg width="31" height="34" viewBox="0 0 31 34" fill="none" xmlns="http://www.w3.org/2000/svg">
<g id="elements">
<path id="Rectangle 2173" d="M17.083 1.1665H17.5148C22.6784 1.1665 25.2602 1.1665 27.0531 2.42974C27.5669 2.79168 28.0229 3.22092 28.4075 3.70441C29.7497 5.3919 29.7497 7.82182 29.7497 12.6817V16.712C29.7497 21.4036 29.7497 23.7495 29.0072 25.6231C27.8136 28.6351 25.2892 31.0109 22.0889 32.1344C20.0983 32.8332 17.6058 32.8332 12.6209 32.8332C9.77236 32.8332 8.3481 32.8332 7.21057 32.4339C5.38184 31.7919 3.93936 30.4343 3.25728 28.7131C2.83301 27.6425 2.83301 26.302 2.83301 23.621V16.9998" stroke="#C7EF4E" stroke-width="2" stroke-linecap="round" stroke-linejoin="round"/>
<path id="Vector" d="M29.7503 17C29.7503 19.9148 27.3874 22.2778 24.4725 22.2778C23.4184 22.2778 22.1756 22.0931 21.1507 22.3677C20.24 22.6117 19.5287 23.323 19.2847 24.2337C19.0101 25.2586 19.1948 26.5014 19.1948 27.5556C19.1948 30.4704 16.8318 32.8333 13.917 32.8333" stroke="#C7EF4E" stroke-width="2" stroke-linecap="round" stroke-linejoin="round"/>
<path id="Vector_2" d="M13.9167 7.49984L1.25 7.49984M7.58333 1.1665V13.8332" stroke="#C7EF4E" stroke-width="2" stroke-linecap="round"/>
</g>
</svg>
