<svg width="12" height="14" viewBox="0 0 12 14" fill="none" xmlns="http://www.w3.org/2000/svg">
<g id="Bookmark">
<path id="Bookmark_2" fill-rule="evenodd" clip-rule="evenodd" d="M4.14238 0.333374H8.40049C10.2707 0.333374 11.7821 1.04671 11.8028 2.86004V12.98C11.8028 13.0934 11.7752 13.2067 11.72 13.3067C11.6303 13.4667 11.4785 13.5867 11.2921 13.64C11.1127 13.6934 10.9126 13.6667 10.7469 13.5734L6.27489 11.4134L1.79594 13.5734C1.69311 13.626 1.5751 13.66 1.45777 13.66C1.0713 13.66 0.760742 13.3534 0.760742 12.98V2.86004C0.760742 1.04671 2.27903 0.333374 4.14238 0.333374ZM3.67309 5.41337H8.86978C9.16654 5.41337 9.40808 5.17937 9.40808 4.88671C9.40808 4.59337 9.16654 4.36004 8.86978 4.36004H3.67309C3.37634 4.36004 3.13479 4.59337 3.13479 4.88671C3.13479 5.17937 3.37634 5.41337 3.67309 5.41337Z" fill="#C7EF4E"/>
</g>
</svg>
