<svg width="27" height="27" viewBox="0 0 27 27" fill="none" xmlns="http://www.w3.org/2000/svg">
<path fill-rule="evenodd" clip-rule="evenodd" d="M19.5364 5.4638C18.0974 4.21148 15.9156 4.36285 14.6633 5.8019L10.9719 10.0437C11.6436 11.1836 12.2542 12.0024 12.9497 12.6545C14.0175 11.7773 15.3852 11.25 16.8753 11.25C17.5506 11.25 18.2016 11.3583 18.8111 11.559L19.8745 10.337C21.1269 8.89791 20.9755 6.71612 19.5364 5.4638ZM5.02531 15.1632L13.8146 5.06337C15.4748 3.15563 18.3672 2.95495 20.275 4.61515C22.1827 6.27535 22.3834 9.16774 20.7232 11.0755L19.1426 12.8918L18.7708 12.7416C18.1861 12.5053 17.5466 12.375 16.8753 12.375C15.4772 12.375 14.2124 12.941 13.2956 13.8577C12.3789 14.7745 11.8128 16.0393 11.8128 17.4375C11.8128 18.3581 12.0581 19.2198 12.4864 19.9625L12.6869 20.3101L12.4235 20.6128C11.5703 21.5931 10.45 22.3647 9.22266 22.6328C7.97213 22.9061 6.64803 22.6457 5.47353 21.6236C3.56579 19.9634 3.36511 17.071 5.02531 15.1632Z" fill="#1C1C1E"/>
<path fill-rule="evenodd" clip-rule="evenodd" d="M18.4999 6.31204C18.5775 6.01123 18.3966 5.70447 18.0958 5.62686C16.3082 5.16568 15.2176 6.42043 14.7826 6.92089C14.7759 6.92854 14.7694 6.93602 14.7631 6.9433C14.5592 7.17765 14.5838 7.53295 14.8182 7.73689C15.0525 7.94083 15.4078 7.91618 15.6117 7.68183C16.0694 7.15596 16.7308 6.43655 17.8147 6.71619C18.1156 6.7938 18.4223 6.61285 18.4999 6.31204Z" fill="#1C1C1E"/>
<path fill-rule="evenodd" clip-rule="evenodd" d="M16.875 12.375C14.0791 12.375 11.8125 14.6416 11.8125 17.4375C11.8125 20.2334 14.0791 22.5 16.875 22.5C19.6709 22.5 21.9375 20.2334 21.9375 17.4375C21.9375 14.6416 19.6709 12.375 16.875 12.375ZM10.6875 17.4375C10.6875 14.0202 13.4577 11.25 16.875 11.25C20.2923 11.25 23.0625 14.0202 23.0625 17.4375C23.0625 20.8548 20.2923 23.625 16.875 23.625C13.4577 23.625 10.6875 20.8548 10.6875 17.4375Z" fill="#1C1C1E"/>
<path fill-rule="evenodd" clip-rule="evenodd" d="M12.5284 18.6022C12.448 18.3021 12.6261 17.9937 12.9261 17.9133L20.5328 15.8751C20.8329 15.7946 21.1413 15.9727 21.2217 16.2728C21.3021 16.5729 21.1241 16.8813 20.824 16.9617L13.2173 18.9999C12.9172 19.0803 12.6088 18.9022 12.5284 18.6022Z" fill="#1C1C1E"/>
</svg>
