<svg width="18" height="26" viewBox="0 0 18 26" fill="none" xmlns="http://www.w3.org/2000/svg">
<g id="Delete">
<path id="Delete_2" fill-rule="evenodd" clip-rule="evenodd" d="M17.2871 4.65894C17.6761 4.65894 18 5.06371 18 5.57876V6.05495C18 6.55747 17.6761 6.97477 17.2871 6.97477H0.713853C0.32386 6.97477 0 6.55747 0 6.05495V5.57876C0 5.06371 0.32386 4.65894 0.713853 4.65894H3.62957C4.22185 4.65894 4.7373 4.13137 4.87054 3.38699L5.02323 2.53234C5.26054 1.36817 6.0415 0.594971 6.93527 0.594971H11.0647C11.9488 0.594971 12.7385 1.36817 12.967 2.47094L13.1304 3.38574C13.2627 4.13137 13.7781 4.65894 14.3714 4.65894H17.2871ZM15.8058 22.0667C16.1102 18.5115 16.6432 10.0653 16.6432 9.98008C16.6626 9.72193 16.5955 9.47756 16.4623 9.28082C16.3193 9.09661 16.1384 8.98758 15.9391 8.98758H2.06852C1.86818 8.98758 1.67756 9.09661 1.54529 9.28082C1.41108 9.47756 1.34494 9.72193 1.35467 9.98008C1.35646 9.99574 1.37558 10.2932 1.40755 10.7906C1.54958 13.0003 1.94517 19.1545 2.20079 22.0667C2.38168 24.2121 3.50498 25.5605 5.13206 25.6094C6.38763 25.6457 7.68112 25.6583 9.00379 25.6583C10.2496 25.6583 11.5149 25.6457 12.8094 25.6094C14.4929 25.573 15.6152 24.2485 15.8058 22.0667Z" fill="white"/>
</g>
</svg>
