<svg width="15" height="16" viewBox="0 0 15 16" fill="none" xmlns="http://www.w3.org/2000/svg">
<path d="M9.375 10.5008L6.875 13.0008H11.875C12.5625 13.0008 13.125 12.4383 13.125 11.7508C13.125 11.0633 12.5625 10.5008 11.875 10.5008H9.375Z" fill="#0659FD"/>
<path d="M7.5375 4.99458L2.05625 10.4758C1.94375 10.5883 1.875 10.7508 1.875 10.9133V12.3758C1.875 12.7196 2.15625 13.0008 2.5 13.0008H3.9625C4.13125 13.0008 4.2875 12.9321 4.40625 12.8196L9.8875 7.33833L7.5375 4.99458Z" fill="#0659FD"/>
<path d="M11.6937 5.52583C11.9375 5.28208 11.9375 4.88833 11.6937 4.64458L10.2313 3.18208C9.9875 2.93833 9.59375 2.93833 9.35 3.18208L8.20625 4.32583L10.55 6.66958L11.6937 5.52583Z" fill="#0659FD"/>
</svg>
