<svg width="25" height="25" viewBox="0 0 20 20" fill="none" xmlns="http://www.w3.org/2000/svg">
<path opacity="0.25" fill-rule="evenodd" clip-rule="evenodd" d="M10.0003 3.33317C6.31843 3.33317 3.33366 6.31794 3.33366 9.99984C3.33366 13.6817 6.31843 16.6665 10.0003 16.6665C11.0662 16.6665 12.0713 16.417 12.9628 15.974C13.3749 15.7692 13.8751 15.9372 14.0799 16.3494C14.2847 16.7615 14.1167 17.2617 13.7045 17.4665C12.5877 18.0215 11.3292 18.3332 10.0003 18.3332C5.39795 18.3332 1.66699 14.6022 1.66699 9.99984C1.66699 5.39746 5.39795 1.6665 10.0003 1.6665C14.6027 1.6665 18.3337 5.39746 18.3337 9.99984V10.0073C18.3337 10.2342 18.3339 11.1761 18.0305 12.0863C17.8756 12.5508 17.623 13.0665 17.1971 13.4734C16.7514 13.8993 16.1555 14.1665 15.417 14.1665C14.9568 14.1665 14.5837 13.7934 14.5837 13.3332C14.5837 12.8729 14.9568 12.4998 15.417 12.4998C15.7202 12.4998 15.9055 12.4025 16.0457 12.2684C16.2058 12.1155 16.3438 11.876 16.4493 11.5592C16.6633 10.9172 16.667 10.2035 16.667 9.99984C16.667 6.31794 13.6822 3.33317 10.0003 3.33317Z" fill="white"/>
<path fill-rule="evenodd" clip-rule="evenodd" d="M12.4997 10.0002C12.4997 11.3809 11.3804 12.5002 9.99967 12.5002C8.61896 12.5002 7.49967 11.3809 7.49967 10.0002C7.49967 8.61945 8.61896 7.50016 9.99967 7.50016C11.3804 7.50016 12.4997 8.61945 12.4997 10.0002ZM13.1251 12.7557C12.3616 13.621 11.2444 14.1668 9.99967 14.1668C7.69849 14.1668 5.83301 12.3013 5.83301 10.0002C5.83301 7.69898 7.69849 5.8335 9.99967 5.8335C10.9377 5.8335 11.8033 6.14345 12.4997 6.66653C12.4998 6.20643 12.8729 5.8335 13.333 5.8335C13.7933 5.8335 14.1663 6.20659 14.1663 6.66683C14.1663 8.79441 14.1715 10.346 14.406 11.378C14.5208 11.8828 14.669 12.1533 14.8076 12.295C14.918 12.4079 15.0799 12.5002 15.4163 12.5002C15.8766 12.5002 16.2497 12.8733 16.2497 13.3335C16.2497 13.7937 15.8766 14.1668 15.4163 14.1668C14.7112 14.1668 14.0918 13.9466 13.6162 13.4605C13.414 13.2538 13.2536 13.0148 13.1251 12.7557Z" fill="white"/>
</svg>

