<svg width="15" height="17" viewBox="0 0 15 17" fill="none" xmlns="http://www.w3.org/2000/svg">
<path d="M11.6667 0.166626C11.2083 0.166626 10.8333 0.541626 10.8333 0.999959V1.83329H4.16667V0.999959C4.16667 0.541626 3.79167 0.166626 3.33333 0.166626C2.875 0.166626 2.5 0.541626 2.5 0.999959V1.83329H1.66667C0.741667 1.83329 0.00833333 2.58329 0.00833333 3.49996L0 15.1666C0 16.0833 0.741667 16.8333 1.66667 16.8333H13.3333C14.25 16.8333 15 16.0833 15 15.1666V3.49996C15 2.58329 14.25 1.83329 13.3333 1.83329H12.5V0.999959C12.5 0.541626 12.125 0.166626 11.6667 0.166626ZM13.3333 15.1666H1.66667V6.83329H13.3333V15.1666ZM6.66667 9.33329C6.66667 8.87496 7.04167 8.49996 7.5 8.49996C7.95833 8.49996 8.33333 8.87496 8.33333 9.33329C8.33333 9.79163 7.95833 10.1666 7.5 10.1666C7.04167 10.1666 6.66667 9.79163 6.66667 9.33329ZM3.33333 9.33329C3.33333 8.87496 3.70833 8.49996 4.16667 8.49996C4.625 8.49996 5 8.87496 5 9.33329C5 9.79163 4.625 10.1666 4.16667 10.1666C3.70833 10.1666 3.33333 9.79163 3.33333 9.33329ZM10 9.33329C10 8.87496 10.375 8.49996 10.8333 8.49996C11.2917 8.49996 11.6667 8.87496 11.6667 9.33329C11.6667 9.79163 11.2917 10.1666 10.8333 10.1666C10.375 10.1666 10 9.79163 10 9.33329ZM6.66667 12.6666C6.66667 12.2083 7.04167 11.8333 7.5 11.8333C7.95833 11.8333 8.33333 12.2083 8.33333 12.6666C8.33333 13.125 7.95833 13.5 7.5 13.5C7.04167 13.5 6.66667 13.125 6.66667 12.6666ZM3.33333 12.6666C3.33333 12.2083 3.70833 11.8333 4.16667 11.8333C4.625 11.8333 5 12.2083 5 12.6666C5 13.125 4.625 13.5 4.16667 13.5C3.70833 13.5 3.33333 13.125 3.33333 12.6666ZM10 12.6666C10 12.2083 10.375 11.8333 10.8333 11.8333C11.2917 11.8333 11.6667 12.2083 11.6667 12.6666C11.6667 13.125 11.2917 13.5 10.8333 13.5C10.375 13.5 10 13.125 10 12.6666Z" fill="#03256A"/>
</svg>
