<svg width="18" height="18" viewBox="0 0 18 18" fill="none" xmlns="http://www.w3.org/2000/svg">
<path fill-rule="evenodd" clip-rule="evenodd" d="M7.194 11.4053C9.96075 11.4053 12.3255 11.8245 12.3255 13.4993C12.3255 15.174 9.9765 15.6053 7.194 15.6053C4.4265 15.6053 2.0625 15.1898 2.0625 13.5143C2.0625 11.8388 4.41075 11.4053 7.194 11.4053Z" stroke="#C7EF4E" stroke-width="1.2" stroke-linecap="round" stroke-linejoin="round"/>
<path fill-rule="evenodd" clip-rule="evenodd" d="M7.1938 9.015C5.3773 9.015 3.9043 7.54275 3.9043 5.72625C3.9043 3.90975 5.3773 2.4375 7.1938 2.4375C9.00955 2.4375 10.4825 3.90975 10.4825 5.72625C10.4893 7.536 9.0268 9.00825 7.21705 9.015H7.1938Z" stroke="#C7EF4E" stroke-width="1.2" stroke-linecap="round" stroke-linejoin="round"/>
<path d="M12.3623 8.16145C13.5631 7.9927 14.4878 6.9622 14.4901 5.71495C14.4901 4.4857 13.5938 3.4657 12.4186 3.27295" stroke="#C7EF4E" stroke-width="1.2" stroke-linecap="round" stroke-linejoin="round"/>
<path d="M13.9473 11.0493C15.1105 11.2226 15.9228 11.6306 15.9228 12.4706C15.9228 13.0488 15.5403 13.4238 14.9223 13.6586" stroke="#C7EF4E" stroke-width="1.2" stroke-linecap="round" stroke-linejoin="round"/>
</svg>
