<svg width="24" height="24" viewBox="0 0 24 24" fill="none" xmlns="http://www.w3.org/2000/svg">
<g id="Workout\Nutrition/Bar Graph">
<path id="Vector" d="M19.6875 11.6016C19.6875 10.8896 20.2646 10.3125 20.9766 10.3125C21.6885 10.3125 22.2656 10.8896 22.2656 11.6016V18.5391C22.2656 19.251 21.6885 19.8281 20.9766 19.8281C20.2646 19.8281 19.6875 19.251 19.6875 18.5391V11.6016Z" fill="#C7EF4E"/>
<path id="Vector_2" d="M15.4219 7.85156C15.4219 7.13963 15.999 6.5625 16.7109 6.5625C17.4229 6.5625 18 7.13963 18 7.85156V18.5391C18 19.251 17.4229 19.8281 16.7109 19.8281C15.999 19.8281 15.4219 19.251 15.4219 18.5391V7.85156Z" fill="#C7EF4E"/>
<path id="Vector_3" d="M11.1562 9.91406C11.1562 9.20213 11.7334 8.625 12.4453 8.625C13.1572 8.625 13.7344 9.20213 13.7344 9.91406V18.5391C13.7344 19.251 13.1572 19.8281 12.4453 19.8281C11.7334 19.8281 11.1562 19.251 11.1562 18.5391V9.91406Z" fill="#C7EF4E"/>
<path id="Vector_4" d="M6.89062 13.3828C6.89062 12.6709 7.46776 12.0938 8.17969 12.0938C8.89162 12.0938 9.46875 12.6709 9.46875 13.3828V18.5391C9.46875 19.251 8.89162 19.8281 8.17969 19.8281C7.46776 19.8281 6.89062 19.251 6.89062 18.5391V13.3828Z" fill="#C7EF4E"/>
<path id="Vector_5" d="M2.625 15.2109C2.625 14.499 3.20213 13.9219 3.91406 13.9219C4.62599 13.9219 5.20312 14.499 5.20312 15.2109V18.5391C5.20312 19.251 4.62599 19.8281 3.91406 19.8281C3.20213 19.8281 2.625 19.251 2.625 18.5391V15.2109Z" fill="#C7EF4E"/>
<path id="Vector_6" d="M0.645 22.4662C0.28875 22.4662 0 22.1774 0 21.8212V2.17869C0 2.00763 0.0679552 1.84357 0.188916 1.72261C0.309877 1.60165 0.473935 1.53369 0.645 1.53369C0.816065 1.53369 0.980123 1.60165 1.10108 1.72261C1.22204 1.84357 1.29 2.00763 1.29 2.17869V21.1762H23.355C23.5261 21.1762 23.6901 21.2441 23.8111 21.3651C23.932 21.4861 24 21.6501 24 21.8212C24 21.9923 23.932 22.1563 23.8111 22.2773C23.6901 22.3982 23.5261 22.4662 23.355 22.4662H0.645Z" fill="#C7EF4E"/>
</g>
</svg>
