<svg width="24" height="24" viewBox="0 0 24 24" fill="none" xmlns="http://www.w3.org/2000/svg">
<path fill-rule="evenodd" clip-rule="evenodd" d="M12.5889 3.62037C12.2687 3.28311 11.7313 3.28311 11.4111 3.62037V3.62037L3.25762 12.6551C3.09179 12.8388 3 13.0775 3 13.325V19.8474C3 20.5571 3.576 21.1331 4.28571 21.1331H8.14286C8.85257 21.1331 9.42857 20.5571 9.42857 19.8474V14.7045C9.42857 13.9948 10.0046 13.4188 10.7143 13.4188H13.2857C13.9954 13.4188 14.5714 13.9948 14.5714 14.7045V19.8474C14.5714 20.5571 15.1474 21.1331 15.8571 21.1331H19.7143C20.424 21.1331 21 20.5571 21 19.8474V13.325C21 13.0775 20.9082 12.8388 20.7424 12.6551L12.5889 3.62037V3.62037Z" fill="#757575"/>
</svg>
