<svg width="32" height="32" viewBox="0 0 32 32" fill="none" xmlns="http://www.w3.org/2000/svg">
<path d="M22.1113 9.48001C22.4465 9.65318 22.8645 9.53703 23.0434 9.20484L26.9415 1.96547C27.4198 1.07716 26.7764 0 25.7675 0H20.7913C20.3034 0 19.8544 0.266516 19.6208 0.694864L17.6927 4.22965C17.5842 4.42863 17.5842 4.66913 17.6927 4.86812L19.5484 8.27015C19.6338 8.42676 19.7787 8.54182 19.9491 8.59459C20.7004 8.82725 21.4233 9.12456 22.1113 9.48001Z" fill="white"/>
<path d="M9.88904 9.48032C9.55368 9.65317 9.13569 9.53702 8.95681 9.20484L5.05869 1.96547C4.58037 1.07716 5.22375 0 6.23265 0H11.2089C11.6968 0 12.1457 0.266516 12.3794 0.694864L15.812 6.98804C16.0582 7.43928 15.722 7.9933 15.2089 8.02409C13.3584 8.13513 11.5383 8.63031 9.88904 9.48032Z" fill="white"/>
<path opacity="0.25" fill-rule="evenodd" clip-rule="evenodd" d="M15.9997 31.9998C21.8907 31.9998 26.6663 27.2242 26.6663 21.3332C26.6663 15.4421 21.8907 10.6665 15.9997 10.6665C10.1086 10.6665 5.33301 15.4421 5.33301 21.3332C5.33301 27.2242 10.1086 31.9998 15.9997 31.9998Z" fill="white"/>
<path fill-rule="evenodd" clip-rule="evenodd" d="M16 25.3335C18.2091 25.3335 20 23.5426 20 21.3335C20 19.1244 18.2091 17.3335 16 17.3335C13.7909 17.3335 12 19.1244 12 21.3335C12 23.5426 13.7909 25.3335 16 25.3335Z" fill="white"/>
</svg>
