<svg width="20" height="20" viewBox="0 0 20 20" fill="none" xmlns="http://www.w3.org/2000/svg">
<path opacity="0.25" fill-rule="evenodd" clip-rule="evenodd" d="M2.59265 11.024C2.72614 9.17698 4.17813 7.74297 6.02625 7.62549C7.13148 7.55524 8.48288 7.5 10 7.5C11.5171 7.5 12.8685 7.55524 13.9737 7.62549C15.8219 7.74297 17.2739 9.17698 17.4074 11.024C17.4612 11.7695 17.5 12.5708 17.5 13.3333C17.5 14.0959 17.4612 14.8972 17.4074 15.6427C17.2739 17.4897 15.8219 18.9237 13.9737 19.0412C12.8685 19.1114 11.5171 19.1667 10 19.1667C8.48288 19.1667 7.13148 19.1114 6.02625 19.0412C4.17813 18.9237 2.72614 17.4897 2.59265 15.6427C2.53876 14.8972 2.5 14.0959 2.5 13.3333C2.5 12.5708 2.53876 11.7695 2.59265 11.024Z" fill="white"/>
<path fill-rule="evenodd" clip-rule="evenodd" d="M10.833 13.9439C11.3312 13.6557 11.6663 13.1171 11.6663 12.5002C11.6663 11.5797 10.9201 10.8335 9.99967 10.8335C9.0792 10.8335 8.33301 11.5797 8.33301 12.5002C8.33301 13.1171 8.66817 13.6557 9.16634 13.9439V15.0002C9.16634 15.4604 9.53944 15.8335 9.99967 15.8335C10.4599 15.8335 10.833 15.4604 10.833 15.0002V13.9439Z" fill="white"/>
<path fill-rule="evenodd" clip-rule="evenodd" d="M5.83301 5.00016C5.83301 2.69898 7.69849 0.833496 9.99967 0.833496C12.3009 0.833496 14.1663 2.69898 14.1663 5.00016V8.3335C14.1663 8.79373 13.7932 9.16683 13.333 9.16683C12.8728 9.16683 12.4997 8.79373 12.4997 8.3335V5.00016C12.4997 3.61945 11.3804 2.50016 9.99967 2.50016C8.61896 2.50016 7.49967 3.61945 7.49967 5.00016V8.3335C7.49967 8.79373 7.12658 9.16683 6.66634 9.16683C6.2061 9.16683 5.83301 8.79373 5.83301 8.3335V5.00016Z" fill="white"/>
</svg>
