<svg width="25" height="25" viewBox="0 0 25 25" fill="none" xmlns="http://www.w3.org/2000/svg">
<path d="M7.28906 9.375C5.56302 9.375 4.16406 10.774 4.16406 12.5V19.7917C4.16406 21.5177 5.56302 22.9167 7.28906 22.9167H17.7057C19.4318 22.9167 20.8307 21.5177 20.8307 19.7917V12.5C20.8307 10.774 19.4318 9.375 17.7057 9.375C16.6664 9.37503 8.33302 9.37502 7.28906 9.375ZM12.4974 12.5C13.6484 12.5 14.5807 13.4323 14.5807 14.5833C14.5807 15.3229 14.1193 15.8417 13.5391 16.2104V18.75C13.5391 19.325 13.0724 19.7917 12.4974 19.7917C11.9224 19.7917 11.4557 19.325 11.4557 18.75V16.2104C10.8755 15.8406 10.4141 15.3229 10.4141 14.5833C10.4141 13.4323 11.3464 12.5 12.4974 12.5Z" fill="#C7EF4E"/>
<path fill-rule="evenodd" clip-rule="evenodd" d="M12.5003 4.16659C10.7744 4.16659 9.37533 5.5657 9.37533 7.29159V9.37492H7.29199V7.29159C7.29199 4.4151 9.62384 2.08325 12.5003 2.08325C15.3768 2.08325 17.7087 4.4151 17.7087 7.29159V9.37492H15.6253V7.29159C15.6253 5.5657 14.2262 4.16659 12.5003 4.16659Z" fill="#C7EF4E" fill-opacity="0.75"/>
</svg>
