<svg width="16" height="16" viewBox="0 0 16 16" fill="none" xmlns="http://www.w3.org/2000/svg">
<g id="Apple / Dark / Duotone">
<path id="Shape" opacity="0.4" fill-rule="evenodd" clip-rule="evenodd" d="M2 9.33317C2 11.9998 3.99988 15.3332 5.99994 15.3332C6.69454 15.3332 7.38914 14.9311 7.99996 14.2946C8.61076 14.9311 9.30534 15.3332 9.99994 15.3332C12 15.3332 14 11.9998 14 9.33317C14 6.6665 12.6667 4.6665 9.99994 4.6665C9.21889 4.6665 8.55223 4.83807 7.99996 5.14771C7.44767 4.83807 6.78099 4.6665 5.99994 4.6665C3.33322 4.6665 2 6.6665 2 9.33317Z" fill="white"/>
<g id="Shape_2">
<path d="M5.66634 8.6665C5.48225 8.6665 5.33301 8.81574 5.33301 8.99984V9.6665C5.33301 10.2188 5.78072 10.6665 6.33301 10.6665C6.5171 10.6665 6.66634 10.5173 6.66634 10.3332V9.6665C6.66634 9.11422 6.21863 8.6665 5.66634 8.6665Z" fill="white"/>
<path d="M10.333 8.6665C10.5171 8.6665 10.6663 8.81574 10.6663 8.99984V9.6665C10.6663 10.2188 10.2186 10.6665 9.66634 10.6665C9.48225 10.6665 9.33301 10.5173 9.33301 10.3332V9.6665C9.33301 9.11422 9.78072 8.6665 10.333 8.6665Z" fill="white"/>
</g>
<path id="Shape_3" fill-rule="evenodd" clip-rule="evenodd" d="M6.00033 3.33333C6.73671 3.33333 7.33366 3.93029 7.33366 4.66667V5.33333C7.33366 5.70152 7.63214 6 8.00033 6V6C8.36852 6 8.66699 5.70152 8.66699 5.33333V4.66667C8.66699 3.19391 7.47309 2 6.00033 2H5.33366C4.96547 2 4.66699 2.29848 4.66699 2.66667C4.66699 3.03486 4.96547 3.33333 5.33366 3.33333H6.00033Z" fill="white"/>
<path id="Shape_4" d="M11.5552 0.666504H12.8886C13.134 0.666504 13.333 0.865488 13.333 1.11095C13.333 2.33825 12.3381 3.33317 11.1108 3.33317H9.77745C9.53199 3.33317 9.33301 3.13419 9.33301 2.88873C9.33301 1.66143 10.3279 0.666504 11.5552 0.666504Z" fill="white"/>
</g>
</svg>
