<svg width="16" height="16" viewBox="0 0 16 16" fill="none" xmlns="http://www.w3.org/2000/svg">
<g id="Avocado / Dark / Duotone">
<path id="Shape" opacity="0.4" fill-rule="evenodd" clip-rule="evenodd" d="M8.00032 0C9.91298 0 11.5346 1.4064 11.8051 3.29983L12.2187 6.19559C12.3163 6.87876 12.5508 7.53098 12.7853 8.18316C12.891 8.47699 12.9966 8.7708 13.0897 9.06744C13.2482 9.5723 13.3337 10.1095 13.3337 10.6667C13.3337 13.6122 10.9458 16 8.00033 16C5.05481 16 2.66699 13.6122 2.66699 10.6667C2.66699 10.1095 2.75243 9.5723 2.91091 9.06744C3.00403 8.7708 3.10967 8.47699 3.21532 8.18316C3.44981 7.53098 3.68431 6.87876 3.78191 6.19559L4.19559 3.29983C4.46608 1.4064 6.08767 0 8.00032 0Z" fill="white"/>
<ellipse id="Shape_2" cx="7.99967" cy="10.6667" rx="2.66667" ry="2.66667" fill="white"/>
</g>
</svg>
