<svg width="32" height="32" viewBox="0 0 32 32" fill="none" xmlns="http://www.w3.org/2000/svg">
<path opacity="0.25" fill-rule="evenodd" clip-rule="evenodd" d="M16.0003 29.3332C23.3641 29.3332 29.3337 23.3636 29.3337 15.9998C29.3337 8.63604 23.3641 2.6665 16.0003 2.6665C8.63653 2.6665 2.66699 8.63604 2.66699 15.9998C2.66699 23.3636 8.63653 29.3332 16.0003 29.3332Z" fill="black"/>
<path d="M8.00042 26.6678C11.2389 24.2353 13.3338 20.3623 13.3338 16.0002C13.3338 11.638 11.2389 7.76507 8.00042 5.33252C7.27257 5.87923 6.60249 6.49869 6.00098 7.18012C8.81769 9.10013 10.6671 12.3342 10.6671 16.0002C10.6671 19.6662 8.81769 22.9002 6.00098 24.8202C6.60249 25.5016 7.27257 26.1211 8.00042 26.6678Z" fill="white"/>
<path d="M24.0004 5.33252C20.7619 7.76507 18.6671 11.638 18.6671 16.0002C18.6671 20.3623 20.7619 24.2353 24.0004 26.6678C24.7283 26.1211 25.3983 25.5016 25.9999 24.8202C23.1831 22.9002 21.3338 19.6662 21.3338 16.0002C21.3338 12.3342 23.1831 9.10013 25.9999 7.18012C25.3983 6.4987 24.7283 5.87923 24.0004 5.33252Z" fill="white"/>
</svg>
