<svg width="16" height="16" viewBox="0 0 16 16" fill="none" xmlns="http://www.w3.org/2000/svg">
<g id="Serving Plate / Dark / Duotone">
<path id="Shape" d="M1.33301 12.0002C1.33301 11.632 1.63148 11.3335 1.99967 11.3335H13.9997C14.3679 11.3335 14.6663 11.632 14.6663 12.0002C14.6663 13.4729 13.4724 14.6668 11.9997 14.6668H3.99967C2.52692 14.6668 1.33301 13.4729 1.33301 12.0002Z" fill="white"/>
<path id="Shape_2" opacity="0.4" fill-rule="evenodd" clip-rule="evenodd" d="M9.77002 4.26552C9.91687 3.9872 10 3.67006 10 3.3335C10 2.22893 9.10457 1.3335 8 1.3335C6.89543 1.3335 6 2.22893 6 3.3335C6 3.67006 6.08313 3.9872 6.22999 4.26552C3.78025 5.02076 2 7.30256 2 10.0002V11.3335H14V10.0002C14 7.30256 12.2198 5.02076 9.77002 4.26552ZM8.66667 3.3335C8.66667 3.70169 8.36819 4.00016 8 4.00016C7.63181 4.00016 7.33333 3.70169 7.33333 3.3335C7.33333 2.96531 7.63181 2.66683 8 2.66683C8.36819 2.66683 8.66667 2.96531 8.66667 3.3335Z" fill="white"/>
</g>
</svg>
