<svg width="21" height="21" viewBox="0 0 16 21" fill="none" xmlns="http://www.w3.org/2000/svg">
<path d="M8.00152 20.25C9.10152 20.25 10.0015 19.35 10.0015 18.25H6.00152C6.00152 19.35 6.89152 20.25 8.00152 20.25ZM14.0015 14.25V9.25C14.0015 6.18 12.3615 3.61 9.50152 2.93V2.25C9.50152 1.42 8.83152 0.75 8.00152 0.75C7.17152 0.75 6.50152 1.42 6.50152 2.25V2.93C3.63152 3.61 2.00152 6.17 2.00152 9.25V14.25L0.711516 15.54C0.0815163 16.17 0.521516 17.25 1.41152 17.25H14.5815C15.4715 17.25 15.9215 16.17 15.2915 15.54L14.0015 14.25Z" fill="#387AFD"/>
</svg>
