<svg width="64" height="64" viewBox="0 0 64 64" fill="none" xmlns="http://www.w3.org/2000/svg">
<path opacity="0.2" d="M51.9997 48H11.9997C11.6496 47.9979 11.3063 47.9039 11.0039 47.7276C10.7015 47.5512 10.4508 47.2985 10.2767 46.9948C10.1025 46.6911 10.0112 46.3471 10.0117 45.997C10.0123 45.6469 10.1047 45.3032 10.2797 45C11.9272 42.15 13.9997 34.9525 13.9997 26C13.9997 21.2261 15.8961 16.6477 19.2718 13.2721C22.6474 9.89642 27.2258 8 31.9997 8C36.7736 8 41.352 9.89642 44.7276 13.2721C48.1033 16.6477 49.9997 21.2261 49.9997 26C49.9997 34.955 52.0747 42.15 53.7247 45C53.8999 45.3035 53.9923 45.6478 53.9926 45.9982C53.993 46.3487 53.9012 46.6931 53.7265 46.997C53.5518 47.3008 53.3003 47.5534 52.9972 47.7294C52.6942 47.9055 52.3502 47.9988 51.9997 48Z" fill="#B3B3B3"/>
<path d="M55.45 43.985C54.0625 41.595 52 34.8325 52 26C52 20.6957 49.8929 15.6086 46.1422 11.8579C42.3914 8.10714 37.3044 6 32 6C26.6957 6 21.6086 8.10714 17.8579 11.8579C14.1072 15.6086 12 20.6957 12 26C12 34.835 9.93503 41.595 8.54753 43.985C8.19321 44.5926 8.00537 45.2829 8.00295 45.9863C8.00054 46.6896 8.18364 47.3812 8.53378 47.9912C8.88392 48.6013 9.38873 49.1082 9.9973 49.4608C10.6059 49.8135 11.2967 49.9995 12 50H22.2025C22.664 52.2579 23.8911 54.2871 25.6764 55.7444C27.4616 57.2018 29.6955 57.9978 32 57.9978C34.3046 57.9978 36.5384 57.2018 38.3237 55.7444C40.109 54.2871 41.3361 52.2579 41.7975 50H52C52.7032 49.9991 53.3937 49.8128 54.0019 49.4599C54.6101 49.1071 55.1146 48.6001 55.4644 47.9901C55.8143 47.3802 55.9971 46.6888 55.9946 45.9856C55.9921 45.2825 55.8043 44.5924 55.45 43.985ZM32 54C30.7596 53.9996 29.5497 53.6148 28.537 52.8984C27.5243 52.1821 26.7585 51.1695 26.345 50H37.655C37.2416 51.1695 36.4758 52.1821 35.463 52.8984C34.4503 53.6148 33.2405 53.9996 32 54ZM12 46C13.925 42.69 16 35.02 16 26C16 21.7565 17.6857 17.6869 20.6863 14.6863C23.6869 11.6857 27.7566 10 32 10C36.2435 10 40.3132 11.6857 43.3137 14.6863C46.3143 17.6869 48 21.7565 48 26C48 35.0125 50.07 42.6825 52 46H12Z" fill="#B3B3B3"/>
</svg>
