<svg width="25" height="24" viewBox="0 0 25 24" fill="none" xmlns="http://www.w3.org/2000/svg">
<g clip-path="url(#clip0_412_5479)">
<path d="M10.625 5C10.625 4.46957 10.8357 3.96086 11.2108 3.58579C11.5859 3.21071 12.0946 3 12.625 3C13.1554 3 13.6641 3.21071 14.0392 3.58579C14.4143 3.96086 14.625 4.46957 14.625 5C15.7734 5.54303 16.7524 6.38833 17.4571 7.4453C18.1617 8.50227 18.5654 9.73107 18.625 11V14C18.7003 14.6217 18.9204 15.2171 19.2678 15.7381C19.6152 16.2592 20.0801 16.6914 20.625 17H4.625C5.16994 16.6914 5.63481 16.2592 5.98219 15.7381C6.32957 15.2171 6.54974 14.6217 6.625 14V11C6.68456 9.73107 7.0883 8.50227 7.79295 7.4453C8.4976 6.38833 9.47659 5.54303 10.625 5" fill="#757575"/>
<path d="M10.625 5C10.625 4.46957 10.8357 3.96086 11.2108 3.58579C11.5859 3.21071 12.0946 3 12.625 3C13.1554 3 13.6641 3.21071 14.0392 3.58579C14.4143 3.96086 14.625 4.46957 14.625 5C15.7734 5.54303 16.7524 6.38833 17.4571 7.4453C18.1617 8.50227 18.5654 9.73107 18.625 11V14C18.7003 14.6217 18.9204 15.2171 19.2678 15.7381C19.6152 16.2592 20.0801 16.6914 20.625 17H4.625C5.16994 16.6914 5.63481 16.2592 5.98219 15.7381C6.32957 15.2171 6.54974 14.6217 6.625 14V11C6.68456 9.73107 7.0883 8.50227 7.79295 7.4453C8.4976 6.38833 9.47659 5.54303 10.625 5" stroke="#757575" stroke-width="1.5" stroke-linecap="round" stroke-linejoin="round"/>
<path d="M9.625 17V18C9.625 18.7956 9.94107 19.5587 10.5037 20.1213C11.0663 20.6839 11.8294 21 12.625 21C13.4206 21 14.1837 20.6839 14.7463 20.1213C15.3089 19.5587 15.625 18.7956 15.625 18V17" stroke="#757575" stroke-width="1.5" stroke-linecap="round" stroke-linejoin="round"/>
</g>
<defs>
<clipPath id="clip0_412_5479">
<rect width="24" height="24" fill="white" transform="translate(0.625)"/>
</clipPath>
</defs>
</svg>
