<svg width="30" height="30" viewBox="0 0 30 30" fill="none" xmlns="http://www.w3.org/2000/svg">
<path d="M25.1198 4.63135H26.4351C26.6102 4.63135 26.7515 4.49005 26.7515 4.31494C26.7515 4.13983 26.6102 3.99854 26.4351 3.99854H25.1198C24.5671 3.99854 24.0999 4.41305 24.0325 4.96248L23.6636 8.00799H19.616C19.2991 8.00799 19.0421 8.26497 19.0421 8.58206V17.3416L18.8481 17.4351C18.5508 17.1135 18.1456 16.8984 17.6995 16.8402L16.8052 16.722C15.9467 16.6092 15.0745 16.7495 14.295 17.1248L14.0662 17.2347C14.1105 17.2989 14.1505 17.3666 14.1885 17.436C14.4333 17.8844 14.5388 18.3883 14.4944 18.8967C14.9457 19.1329 15.3129 19.4937 15.5575 19.9419C15.7128 20.2261 15.8113 20.534 15.8521 20.8487H15.2128C15.1773 20.643 15.1085 20.4392 15.0028 20.2456C14.8055 19.886 14.5123 19.6137 14.1727 19.443C13.9587 19.3345 13.8352 19.1097 13.8604 18.8725C13.9005 18.4928 13.8298 18.0993 13.6338 17.7397C13.5894 17.6595 13.541 17.5845 13.4883 17.5141C13.466 17.4824 13.4419 17.453 13.4165 17.4233C13.3944 17.3959 13.3723 17.3706 13.348 17.3453C13.3448 17.3411 13.3406 17.3369 13.3364 17.3326C13.3122 17.3061 13.2867 17.2809 13.2604 17.2566C13.2342 17.2323 13.2077 17.2082 13.1802 17.1849C13.1749 17.1808 13.1687 17.1754 13.1633 17.1712C13.1391 17.1511 13.1136 17.1312 13.0873 17.1123C13.0579 17.09 13.0272 17.0679 12.9956 17.0478C12.9671 17.0289 12.9375 17.011 12.908 16.9941C12.8732 16.973 12.8384 16.9541 12.8026 16.936C12.5906 16.8295 12.4651 16.608 12.4903 16.3718C12.5409 15.9067 12.4251 15.4184 12.1138 14.9986C12.0675 14.9353 12.0179 14.8762 11.9652 14.8214C11.885 14.7371 11.7986 14.6622 11.7069 14.5946C11.6468 14.5502 11.5835 14.5092 11.518 14.4732C11.517 14.4732 11.517 14.4732 11.517 14.4722C11.4189 14.4163 11.3166 14.3699 11.2112 14.3329C11.1638 14.316 11.1152 14.3013 11.0667 14.2876C11.054 14.2844 11.0424 14.2812 11.0299 14.278C11.0257 14.277 11.0203 14.2758 11.0161 14.2748C10.9823 14.2665 10.9465 14.2591 10.9117 14.2527C10.9075 14.2517 10.9023 14.2506 10.8981 14.2497C10.8927 14.2487 10.8866 14.2476 10.8812 14.2465C10.8295 14.2382 10.7767 14.2308 10.7252 14.2265C10.7178 14.2255 10.7116 14.2255 10.7053 14.2243C10.7009 14.2243 10.6957 14.2233 10.6915 14.2233C10.6525 14.2211 10.6135 14.2191 10.5745 14.2191C10.5691 14.2181 10.565 14.2181 10.5598 14.2181H10.5419C10.5007 14.2181 10.4585 14.2203 10.4163 14.2223C10.4141 14.2223 10.4121 14.2223 10.4099 14.2233C10.3888 14.2243 10.3688 14.2263 10.3477 14.2286C10.3234 14.2308 10.2981 14.2338 10.2738 14.237C10.2337 14.2425 10.1933 14.2501 10.153 14.2586C10.1382 14.2616 10.1238 14.2653 10.1091 14.2688C10.0955 14.272 10.0816 14.2747 10.0681 14.2782C10.046 14.2835 10.0227 14.2897 10.0006 14.2971C9.94052 14.315 9.88143 14.3351 9.82233 14.3594C8.72544 14.8087 8.29001 16.0923 8.84145 17.1026C8.84882 17.1173 8.85719 17.131 8.86573 17.1446C9.06193 17.4833 9.34551 17.7406 9.67149 17.9062C9.88544 18.0138 10.009 18.2385 9.98354 18.4767C9.94353 18.8554 10.0142 19.2498 10.2104 19.6094C10.4076 19.969 10.7007 20.2412 11.0414 20.412C11.0704 20.4265 11.097 20.4438 11.1224 20.4624C11.097 20.4438 11.0704 20.4266 11.0414 20.412C11.0707 20.4267 11.0978 20.4443 11.1236 20.4632C11.129 20.4672 11.1343 20.4712 11.1395 20.4754C11.1894 20.5149 11.2319 20.562 11.2656 20.6146C11.2689 20.6199 11.2725 20.6253 11.2756 20.6308C11.2915 20.6576 11.3059 20.6852 11.3171 20.7145C11.3061 20.6859 11.292 20.6587 11.2765 20.6323C11.3151 20.6981 11.3413 20.7714 11.3503 20.8486H10.531C10.1649 20.6164 9.86504 20.2971 9.65543 19.9121C9.41067 19.4637 9.3052 18.9598 9.34957 18.4524C8.89824 18.215 8.53108 17.8544 8.2865 17.4061C8.23594 17.3144 8.19158 17.2196 8.15357 17.1223C7.95419 17.114 7.77288 17.0021 7.67794 16.8207C7.46282 16.4061 7.09684 16.0633 6.60536 15.885C5.7795 15.5855 4.83566 15.8924 4.34198 16.6191C3.67551 17.6 4.02257 18.9099 5.04124 19.4467C5.40402 19.6387 5.79844 19.703 6.17713 19.6576C6.41452 19.6292 6.64119 19.7485 6.75201 19.9615C6.92813 20.299 7.20454 20.5879 7.56729 20.7789C7.61567 20.804 7.66405 20.8273 7.7136 20.8482L7.06822 20.8489C6.65086 20.8489 6.48763 21.3905 6.83502 21.6213L9.55379 23.4268V24.8949C9.55379 25.1649 9.7731 25.3842 10.0431 25.3842H21.5126H21.5127H21.5131C21.7833 25.3842 22.0024 25.1651 22.0024 24.8949V23.4324H25.8726C26.1897 23.4324 26.4467 23.1756 26.4467 22.8585V8.58191C26.4467 8.26483 26.1897 8.00783 25.8726 8.00783H24.3008L24.6607 5.03813C24.6892 4.8061 24.8864 4.63116 25.1196 4.63116L25.1198 4.63135ZM10.1451 14.2605C10.1367 14.2623 10.1282 14.2645 10.1198 14.2665C10.1283 14.2645 10.1367 14.2623 10.1451 14.2605ZM19.8359 9.15535C19.8359 8.90892 20.0363 8.70852 20.2826 8.70852H21.4665C21.6413 8.70852 21.7829 8.85015 21.7829 9.02492C21.7829 9.1997 21.6413 9.34133 21.4665 9.34133H20.4688V10.3163C20.4688 10.4911 20.3271 10.6327 20.1523 10.6327C19.9776 10.6327 19.8359 10.4911 19.8359 10.3163L19.8359 9.15535ZM17.2868 20.8489C17.296 20.791 17.3079 20.7337 17.3209 20.677C17.3079 20.7337 17.2958 20.791 17.2868 20.8489ZM17.3337 20.6268C17.3444 20.5851 17.3561 20.5437 17.369 20.5029C17.3561 20.5439 17.3444 20.5851 17.3337 20.6268ZM17.3846 20.454C17.403 20.3993 17.4227 20.345 17.4448 20.2919C17.4226 20.345 17.403 20.3993 17.3846 20.454ZM17.4453 20.2908C17.4674 20.2379 17.4919 20.1863 17.5176 20.1351C17.4919 20.1861 17.4674 20.2379 17.4453 20.2908ZM17.5416 20.0892C17.5613 20.0517 17.5821 20.0145 17.6039 19.978C17.5821 20.0145 17.5613 20.0517 17.5416 20.0892ZM17.6305 19.9335C17.6608 19.8848 17.6923 19.8366 17.7259 19.7899C17.6923 19.8366 17.661 19.8848 17.6305 19.9335ZM11.9656 21.5684H14.364C14.5387 21.5684 14.6804 21.7101 14.6804 21.8848C14.6804 22.0596 14.5387 22.2012 14.364 22.2012H11.9656C11.7908 22.2012 11.6492 22.0596 11.6492 21.8848C11.6492 21.7101 11.7908 21.5684 11.9656 21.5684ZM11.1403 20.4769C11.1893 20.5157 11.2307 20.5618 11.2638 20.6132C11.2307 20.5618 11.1892 20.5157 11.1403 20.4769ZM9.81989 21.5684H10.596C10.7708 21.5684 10.9124 21.7101 10.9124 21.8848C10.9124 22.0596 10.7708 22.2012 10.596 22.2012H9.81989C9.64512 22.2012 9.50349 22.0596 9.50349 21.8848C9.50349 21.7101 9.64512 21.5684 9.81989 21.5684ZM25.1083 11.875C25.3564 11.875 25.5576 12.0761 25.5576 12.3243V22.0945C25.5576 22.3426 25.3566 22.5438 25.1083 22.5438H23.2345L24.5341 21.6126C24.6995 21.4941 24.7408 21.3051 24.6906 21.1445C24.6903 21.1435 24.6901 21.1424 24.6898 21.1412C24.6869 21.1323 24.6827 21.1238 24.6792 21.1149C24.6749 21.104 24.6712 21.0928 24.666 21.0824C24.6648 21.0799 24.663 21.0776 24.6618 21.0751C24.6245 21.0022 24.5671 20.9395 24.4921 20.8988C24.434 20.8671 24.3655 20.8486 24.2887 20.8486H23.0046C22.8042 19.5767 21.5997 18.5991 20.1442 18.5991C19.869 18.5991 19.6032 18.6339 19.351 18.6993C18.6745 18.8741 18.1003 19.2672 17.7251 19.7895C17.6913 19.8368 17.6597 19.8851 17.629 19.9342C17.6205 19.9479 17.6125 19.962 17.6041 19.9757C17.5813 20.0139 17.5596 20.0527 17.539 20.0919C17.5319 20.1053 17.5247 20.1188 17.5179 20.1324C17.465 20.2372 17.4196 20.3458 17.3821 20.4575C17.3779 20.4702 17.3741 20.4828 17.37 20.4955C17.3553 20.5414 17.3423 20.5878 17.3305 20.6346C17.3274 20.647 17.324 20.6592 17.3212 20.6716C17.3074 20.7299 17.295 20.7888 17.2857 20.8486H16.6455C16.804 19.5741 17.7609 18.5216 19.041 18.13C19.1071 18.1097 19.1742 18.0918 19.2419 18.0752C19.2521 18.0727 19.2621 18.0704 19.2722 18.068C19.4844 18.0181 19.7041 17.986 19.9294 17.9733V17.9728C19.9465 17.9718 19.9636 17.9703 19.9807 17.9694L21.7187 17.133C21.781 17.1024 21.8548 17.1245 21.8948 17.1816C22.1249 17.5095 22.5951 17.6035 22.9443 17.3366C23.1722 17.1615 23.2743 16.8556 23.2016 16.5782C23.1394 16.3452 22.9822 16.1785 22.7891 16.0941C22.7217 16.0656 22.6869 15.994 22.7058 15.9232C22.749 15.7608 22.7384 15.5847 22.6604 15.4221C22.4863 15.0625 22.058 14.9085 21.6974 15.0741C21.4676 15.1785 21.3273 15.4062 21.2903 15.6552C21.2638 15.8281 21.2933 15.962 21.3494 16.0717C21.3852 16.1413 21.3568 16.2257 21.2861 16.2595L19.9293 16.9129V12.3238C19.9293 12.0755 20.1303 11.8745 20.3786 11.8745L25.1083 11.875Z" fill="#252727"/>
</svg>
