<svg width="39" height="39" viewBox="0 0 39 39" fill="none" xmlns="http://www.w3.org/2000/svg">
<g id="pdf-02">
<path id="elements" d="M24.2503 35.3335H17.4852C12.3216 35.3335 9.73981 35.3335 7.94685 34.0703C7.43314 33.7083 6.97708 33.2791 6.59252 32.7956C5.25033 31.1081 5.25032 28.6782 5.25032 23.8183V19.788C5.25032 15.0964 5.25033 12.7505 5.99281 10.8769C7.18645 7.86491 9.71079 5.48906 12.9111 4.36564C14.9017 3.66683 17.3942 3.66683 22.3791 3.66683C25.2276 3.66683 26.6519 3.66683 27.7894 4.06615C29.6182 4.7081 31.0606 6.06573 31.7427 7.78689C32.167 8.8575 32.167 10.198 32.167 12.879V16.3335" stroke="#C7EF4E" stroke-width="2" stroke-linecap="round" stroke-linejoin="round"/>
<path id="elements_2" d="M5.24967 19.5C5.24967 16.5852 7.61262 14.2222 10.5275 14.2222C11.5816 14.2222 12.8244 14.4069 13.8493 14.1323C14.76 13.8883 15.4713 13.177 15.7153 12.2663C15.9899 11.2414 15.8052 9.9986 15.8052 8.94444C15.8052 6.02961 18.1682 3.66667 21.083 3.66667" stroke="#C7EF4E" stroke-width="2" stroke-linecap="round" stroke-linejoin="round"/>
</g>
</svg>
