<svg width="20" height="20" viewBox="0 0 20 20" fill="none" xmlns="http://www.w3.org/2000/svg">
<path d="M14.1663 5.00016C14.1663 7.30135 12.3009 9.16683 9.99967 9.16683C7.69849 9.16683 5.83301 7.30135 5.83301 5.00016C5.83301 2.69898 7.69849 0.833496 9.99967 0.833496C12.3009 0.833496 14.1663 2.69898 14.1663 5.00016Z" fill="white"/>
<path opacity="0.25" fill-rule="evenodd" clip-rule="evenodd" d="M15.6817 11.7705C15.168 11.175 14.2857 11.2056 13.5958 11.5833C12.5282 12.1676 11.3029 12.4998 10 12.4998C8.69711 12.4998 7.47182 12.1676 6.40421 11.5833C5.71431 11.2056 4.83201 11.175 4.31834 11.7705C3.18519 13.0843 2.5 14.7954 2.5 16.6665V17.4998C2.5 18.4203 3.24619 19.1665 4.16667 19.1665H15.8333C16.7538 19.1665 17.5 18.4203 17.5 17.4998V16.6665C17.5 14.7954 16.8148 13.0843 15.6817 11.7705Z" fill="white"/>
</svg>
