<svg width="25" height="24" viewBox="0 0 25 24" fill="none" xmlns="http://www.w3.org/2000/svg">
<path d="M15.375 9C15.375 10.7949 13.9199 12.25 12.125 12.25V13.75C14.7484 13.75 16.875 11.6234 16.875 9H15.375ZM12.125 12.25C10.3301 12.25 8.875 10.7949 8.875 9H7.375C7.375 11.6234 9.50165 13.75 12.125 13.75V12.25ZM8.875 9C8.875 7.20507 10.3301 5.75 12.125 5.75V4.25C9.50165 4.25 7.375 6.37665 7.375 9H8.875ZM12.125 5.75C13.9199 5.75 15.375 7.20507 15.375 9H16.875C16.875 6.37665 14.7484 4.25 12.125 4.25V5.75ZM9.125 16.75H15.125V15.25H9.125V16.75ZM2.875 12C2.875 6.89137 7.01637 2.75 12.125 2.75V1.25C6.18794 1.25 1.375 6.06294 1.375 12H2.875ZM12.125 2.75C17.2336 2.75 21.375 6.89137 21.375 12H22.875C22.875 6.06294 18.0621 1.25 12.125 1.25V2.75ZM21.375 12C21.375 14.6233 20.284 16.9905 18.5289 18.6748L19.5675 19.7571C21.6051 17.8016 22.875 15.0485 22.875 12H21.375ZM18.5289 18.6748C16.8662 20.2705 14.6108 21.25 12.125 21.25V22.75C15.0132 22.75 17.6367 21.61 19.5675 19.7571L18.5289 18.6748ZM15.125 16.75C16.701 16.75 18.0165 17.8726 18.3126 19.3621L19.7838 19.0697C19.351 16.8918 17.4305 15.25 15.125 15.25V16.75ZM12.125 21.25C9.63925 21.25 7.38384 20.2705 5.72112 18.6748L4.68251 19.7571C6.61333 21.61 9.23682 22.75 12.125 22.75V21.25ZM5.72112 18.6748C3.96603 16.9905 2.875 14.6233 2.875 12H1.375C1.375 15.0485 2.64489 17.8016 4.68251 19.7571L5.72112 18.6748ZM9.125 15.25C6.81945 15.25 4.89903 16.8918 4.4662 19.0697L5.93743 19.3621C6.23346 17.8726 7.54896 16.75 9.125 16.75V15.25Z" fill="#757575"/>
</svg>
