<svg width="17" height="17" viewBox="0 0 17 17" fill="none" xmlns="http://www.w3.org/2000/svg">
    <path
        d="M1.00033 3.49996C0.541992 3.49996 0.166992 3.87496 0.166992 4.33329V15.1666C0.166992 16.0833 0.916992 16.8333 1.83366 16.8333H12.667C13.1253 16.8333 13.5003 16.4583 13.5003 16C13.5003 15.5416 13.1253 15.1666 12.667 15.1666H2.66699C2.20866 15.1666 1.83366 14.7916 1.83366 14.3333V4.33329C1.83366 3.87496 1.45866 3.49996 1.00033 3.49996ZM15.167 0.166626H5.16699C4.25033 0.166626 3.50033 0.916626 3.50033 1.83329V11.8333C3.50033 12.75 4.25033 13.5 5.16699 13.5H15.167C16.0837 13.5 16.8337 12.75 16.8337 11.8333V1.83329C16.8337 0.916626 16.0837 0.166626 15.167 0.166626ZM13.5003 7.66663H6.83366C6.37533 7.66663 6.00033 7.29163 6.00033 6.83329C6.00033 6.37496 6.37533 5.99996 6.83366 5.99996H13.5003C13.9587 5.99996 14.3337 6.37496 14.3337 6.83329C14.3337 7.29163 13.9587 7.66663 13.5003 7.66663ZM10.167 11H6.83366C6.37533 11 6.00033 10.625 6.00033 10.1666C6.00033 9.70829 6.37533 9.33329 6.83366 9.33329H10.167C10.6253 9.33329 11.0003 9.70829 11.0003 10.1666C11.0003 10.625 10.6253 11 10.167 11ZM13.5003 4.33329H6.83366C6.37533 4.33329 6.00033 3.95829 6.00033 3.49996C6.00033 3.04163 6.37533 2.66663 6.83366 2.66663H13.5003C13.9587 2.66663 14.3337 3.04163 14.3337 3.49996C14.3337 3.95829 13.9587 4.33329 13.5003 4.33329Z"
        fill="#03256A" />
</svg>
