<svg width="18" height="22" viewBox="0 0 18 22" fill="none" xmlns="http://www.w3.org/2000/svg">
<g id="Group">
<g id="Mask Group">
<mask id="mask0_615_1280" style="mask-type:luminance" maskUnits="userSpaceOnUse" x="0" y="0" width="18" height="22">
<path id="Vector" fill-rule="evenodd" clip-rule="evenodd" d="M0.5 0.5H17.5388V21.3467H0.5V0.5Z" fill="white"/>
</mask>
<g mask="url(#mask0_615_1280)">
<path id="Exclude" fill-rule="evenodd" clip-rule="evenodd" d="M5.842 2C3.293 2 2 2.982 2 4.921V19.645C2 19.739 2.054 19.79 2.099 19.816C2.144 19.844 2.215 19.864 2.297 19.818L8.679 16.238C8.907 16.111 9.186 16.11 9.415 16.239L15.742 19.813C15.825 19.861 15.896 19.839 15.941 19.812C15.986 19.785 16.039 19.734 16.039 19.64V5.104C16.039 4.337 16.039 2 12.201 2H5.842ZM2.199 21.347C1.904 21.347 1.609 21.268 1.341 21.11C0.814 20.803 0.5 20.254 0.5 19.645V4.921C0.5 2.111 2.447 0.5 5.842 0.5H12.201C15.593 0.5 17.539 2.179 17.539 5.104V19.64C17.539 20.25 17.225 20.799 16.697 21.106C16.171 21.414 15.537 21.42 15.005 21.12L9.045 17.753L3.03 21.127C2.77 21.273 2.485 21.347 2.199 21.347Z" fill="#C7EF4E"/>
</g>
</g>
<path id="Vector_2" fill-rule="evenodd" clip-rule="evenodd" d="M12.6393 8.72852H5.32129C4.90729 8.72852 4.57129 8.39252 4.57129 7.97852C4.57129 7.56452 4.90729 7.22852 5.32129 7.22852H12.6393C13.0533 7.22852 13.3893 7.56452 13.3893 7.97852C13.3893 8.39252 13.0533 8.72852 12.6393 8.72852Z" fill="#C7EF4E"/>
</g>
</svg>
