<svg width="64" height="64" viewBox="0 0 64 64" fill="none" xmlns="http://www.w3.org/2000/svg">
<path opacity="0.2" d="M48 27.9995C48 31.9551 46.827 35.8219 44.6294 39.1109C42.4318 42.3999 39.3082 44.9634 35.6537 46.4771C31.9992 47.9909 27.9778 48.3869 24.0982 47.6152C20.2186 46.8435 16.6549 44.9387 13.8579 42.1416C11.0608 39.3446 9.15601 35.7809 8.3843 31.9013C7.6126 28.0217 8.00867 24.0004 9.52242 20.3458C11.0362 16.6913 13.5996 13.5677 16.8886 11.3701C20.1776 9.17249 24.0444 7.99951 28 7.99951C30.6264 7.99951 33.2272 8.51683 35.6537 9.52192C38.0802 10.527 40.285 12.0002 42.1421 13.8574C43.9993 15.7145 45.4725 17.9193 46.4776 20.3458C47.4827 22.7724 48 25.3731 48 27.9995Z" fill="#B3B3B3"/>
<path d="M57.415 54.5848L44.9 42.0698C48.5345 37.7109 50.3485 32.1185 49.9647 26.4562C49.5809 20.7938 47.0288 15.4974 42.8393 11.6688C38.6499 7.84017 33.1457 5.77414 27.4717 5.90049C21.7977 6.02684 16.3909 8.33585 12.3761 12.3472C8.36122 16.3585 6.04744 21.7632 5.91607 27.4371C5.7847 33.1109 7.84587 38.617 11.6708 42.8098C15.4957 47.0026 20.7898 49.5594 26.4519 49.9482C32.1139 50.337 37.7079 48.528 42.07 44.8973L54.585 57.4148C54.7708 57.6007 54.9914 57.7481 55.2342 57.8486C55.477 57.9492 55.7372 58.0009 56 58.0009C56.2628 58.0009 56.523 57.9492 56.7658 57.8486C57.0086 57.7481 57.2292 57.6007 57.415 57.4148C57.6008 57.229 57.7482 57.0084 57.8488 56.7656C57.9494 56.5228 58.0011 56.2626 58.0011 55.9998C58.0011 55.737 57.9494 55.4768 57.8488 55.234C57.7482 54.9913 57.6008 54.7707 57.415 54.5848ZM10 27.9998C10 24.4398 11.0557 20.9597 13.0335 17.9996C15.0114 15.0395 17.8226 12.7324 21.1117 11.37C24.4008 10.0076 28.02 9.65116 31.5116 10.3457C35.0033 11.0402 38.2106 12.7546 40.7279 15.2719C43.2453 17.7893 44.9596 20.9965 45.6541 24.4882C46.3487 27.9799 45.9922 31.5991 44.6298 34.8881C43.2675 38.1772 40.9604 40.9884 38.0003 42.9663C35.0402 44.9442 31.5601 45.9998 28 45.9998C23.2277 45.9945 18.6524 44.0964 15.2779 40.7219C11.9034 37.3474 10.0053 32.7721 10 27.9998Z" fill="#B3B3B3"/>
</svg>
