<svg width="16" height="16" viewBox="0 0 16 16" fill="none" xmlns="http://www.w3.org/2000/svg">
<g id="Pear / Dark / Duotone" clip-path="url(#clip0_695_1785)">
<path id="Shape" opacity="0.4" fill-rule="evenodd" clip-rule="evenodd" d="M11.333 6.68681C11.333 4.84586 9.84062 3.3335 7.99967 3.3335C6.15873 3.3335 4.66634 4.84586 4.66634 6.68681C4.66634 7.56654 4.26969 8.39395 3.86192 9.17347C3.52407 9.81933 3.33301 10.5541 3.33301 11.3335C3.33301 13.9108 5.42235 16.0002 7.99967 16.0002C10.577 16.0002 12.6663 13.9108 12.6663 11.3335C12.6663 10.5541 12.4753 9.81933 12.1374 9.17347C11.7297 8.39395 11.333 7.56654 11.333 6.68681Z" fill="white"/>
<path id="Shape_2" fill-rule="evenodd" clip-rule="evenodd" d="M11.1386 1.33333C10.3208 1.33333 9.58538 1.83124 9.28165 2.59055L8.61884 4.24759C8.48209 4.58945 8.09411 4.75573 7.75226 4.61898C7.4104 4.48224 7.24413 4.09426 7.38087 3.75241L8.04368 2.09536C8.54989 0.829837 9.77559 0 11.1386 0H12.6665C13.0347 0 13.3332 0.298477 13.3332 0.666667C13.3332 1.03486 13.0347 1.33333 12.6665 1.33333H11.1386Z" fill="white"/>
<path id="Shape_3" d="M4.44477 0H3.11144C2.86598 0 2.66699 0.198984 2.66699 0.444444C2.66699 1.67174 3.66192 2.66667 4.88921 2.66667H6.22255C6.46801 2.66667 6.66699 2.46768 6.66699 2.22222C6.66699 0.994923 5.67207 0 4.44477 0Z" fill="white"/>
</g>
<defs>
<clipPath id="clip0_695_1785">
<rect width="16" height="16" fill="white"/>
</clipPath>
</defs>
</svg>
