<svg width="32" height="32" viewBox="0 0 32 32" fill="none" xmlns="http://www.w3.org/2000/svg">
<path opacity="0.25" fill-rule="evenodd" clip-rule="evenodd" d="M16 32C22.6274 32 28 26.6274 28 20C28 13.3726 22.6274 8 16 8C9.37258 8 4 13.3726 4 20C4 26.6274 9.37258 32 16 32Z" fill="white"/>
<path fill-rule="evenodd" clip-rule="evenodd" d="M11.8051 4.00016C9.82271 4.00016 8.53338 6.08633 9.41992 7.8594L10.5255 10.0705C10.8548 10.7292 10.5878 11.5301 9.92921 11.8594C9.27057 12.1887 8.46967 11.9218 8.14035 11.2631L7.03478 9.05197C5.26171 5.50583 7.84036 1.3335 11.8051 1.3335H20.1941C24.1588 1.3335 26.7375 5.50583 24.9644 9.05197L23.8588 11.2631C23.5295 11.9218 22.7286 12.1887 22.07 11.8594C21.4113 11.5301 21.1444 10.7292 21.4737 10.0705L22.5793 7.8594C23.4658 6.08633 22.1765 4.00016 20.1941 4.00016H11.8051Z" fill="white"/>
</svg>
