<svg width="29" height="30" viewBox="0 0 29 30" fill="none" xmlns="http://www.w3.org/2000/svg">
<path d="M24.6747 6.99797H23.2619C23.1049 6.99797 22.9766 7.13391 22.9766 7.30065V8.37122H21.2797C21.1227 8.37122 20.9944 8.50615 20.9944 8.6739V10.5154H18.6601V9.68541C18.6601 9.18754 18.2793 8.78357 17.8092 8.78357H17.2008C16.7316 8.78357 16.3518 9.18653 16.3509 9.68323C16.3499 9.18651 15.969 8.78357 15.5008 8.78357H14.8924C14.4221 8.78357 14.0414 9.18653 14.0414 9.68541C14.0414 9.18651 13.6617 8.78357 13.1915 8.78357H12.583C12.1139 8.78357 11.733 9.18653 11.733 9.68541C11.733 9.18651 11.3522 8.78357 10.8831 8.78357H10.2746C9.80418 8.78357 9.42361 9.18653 9.42361 9.68541V10.5154H7.52183V8.6739C7.52183 8.50615 7.39448 8.37122 7.23653 8.37122L5.53971 8.37105V7.30048C5.53971 7.13374 5.41253 6.9978 5.25457 6.9978L3.84292 6.99797C3.68496 6.99797 3.55762 7.13391 3.55762 7.30065V15.8339C3.55762 16.0005 3.68496 16.1368 3.84292 16.1368H5.25457C5.41253 16.1368 5.53971 16.0007 5.53971 15.8339V14.7634H7.23669C7.39464 14.7634 7.52199 14.6284 7.52199 14.4607V12.618H9.42377V13.0295C9.42377 13.035 9.4244 13.0405 9.42472 13.0461V13.0293C9.42472 13.5272 9.80549 13.9312 10.2746 13.9312H10.8831C11.1783 13.9312 11.4377 13.772 11.5909 13.5294C11.6585 13.4217 11.8076 13.4217 11.8753 13.5294C12.0284 13.772 12.2879 13.9312 12.5832 13.9312H13.1916C13.288 13.9312 13.3805 13.9143 13.466 13.8826C13.4293 13.7475 13.4094 13.6042 13.4094 13.4566V12.9165C13.4094 12.735 13.4392 12.5601 13.4938 12.3985C13.6947 11.8057 14.2295 11.3818 14.8558 11.3818H17.8093C18.0423 11.3818 18.2631 11.4406 18.4589 11.5454C18.5833 11.612 18.6601 11.7493 18.6601 11.8971V12.9165C18.6601 12.7234 18.6035 12.5451 18.5061 12.3985C18.3519 12.1664 18.0976 12.0146 17.8093 12.0146H15.6192V12.3136C15.6192 12.5738 15.4203 12.7847 15.1751 12.7847H14.0148C14.0088 12.8279 14.0055 12.8719 14.0055 12.9166V13.4567C14.0055 13.7003 14.097 13.9208 14.2439 14.0822C14.3981 14.2531 14.6157 14.3585 14.8554 14.3585H15.5941C15.5972 14.3585 15.6002 14.3596 15.6034 14.3596C15.6091 14.3599 15.6143 14.3607 15.6198 14.3612C15.7722 14.3753 15.8925 14.5096 15.8925 14.6748C15.8925 14.8278 15.7902 14.9554 15.6542 14.9848C15.453 15.0627 14.1084 15.6201 13.7253 16.7537C13.6816 16.8829 13.5668 16.9633 13.4445 16.9633C13.4111 16.9633 13.3772 16.9572 13.3439 16.9447C13.1889 16.8858 13.1083 16.7046 13.1638 16.5401C13.4128 15.8034 13.9538 15.2773 14.4519 14.9281C14.1756 14.8424 13.9325 14.6736 13.7512 14.4461C13.5793 14.5219 13.3893 14.5643 13.1916 14.5643H12.5831C12.2661 14.5643 11.9716 14.4556 11.7332 14.271C11.4946 14.4556 11.2004 14.5643 10.8833 14.5643H10.2749C9.95675 14.5643 9.66339 14.4556 9.42497 14.27C9.42592 14.7762 9.59098 15.2656 9.89111 15.657L11.0602 17.1777L10.7181 22.9986C10.6938 23.4129 11.0039 23.7633 11.3954 23.7633L16.6461 23.763C17.0376 23.763 17.3477 23.4126 17.3234 22.9982L16.9811 17.1735L16.9813 17.1734L18.1752 15.6632C18.3621 15.4269 18.4984 15.1537 18.5779 14.8616C18.6325 14.6642 18.6605 14.4576 18.6605 14.2487V13.0335C18.6605 13.0321 18.6606 13.031 18.6606 13.0296V12.6181H20.9949V14.4608C20.9949 14.6286 21.1232 14.7635 21.2802 14.7635H22.9772V15.8341C22.9772 16.0006 23.1055 16.1369 23.2625 16.1369H24.6751C24.8323 16.1369 24.9596 16.0008 24.9596 15.8341L24.9593 7.30078C24.9593 7.13404 24.8321 6.99811 24.675 6.99811L24.6747 6.99797Z" fill="black"/>
</svg>
