<svg width="48" height="48" viewBox="0 0 48 48" fill="none" xmlns="http://www.w3.org/2000/svg">
<g id="Group">
<path id="Vector" d="M24.0008 47.9996C37.2555 47.9996 48.0005 37.2545 48.0005 23.9998C48.0005 10.7451 37.2555 0 24.0008 0C10.746 0 0.000976562 10.7451 0.000976562 23.9998C0.000976562 37.2545 10.746 47.9996 24.0008 47.9996Z" fill="#55ACEE"/>
<g id="Group_2">
<path id="Vector_2" d="M38.7006 17.2477C37.6722 17.7038 36.5658 18.0123 35.4056 18.15C36.5902 17.4403 37.4993 16.3172 37.9284 14.9769C36.82 15.6344 35.5917 16.1115 34.2856 16.3686C33.2391 15.2541 31.7482 14.5576 30.0972 14.5576C26.9296 14.5576 24.3606 17.1267 24.3606 20.2942C24.3606 20.7439 24.4115 21.1815 24.5099 21.6017C19.7423 21.3625 15.515 19.0788 12.6854 15.6071C12.1917 16.4541 11.9085 17.4403 11.9085 18.4914C11.9085 20.4812 12.922 22.2378 14.4604 23.2663C13.5205 23.2368 12.6354 22.9788 11.8623 22.548C11.8619 22.5724 11.8619 22.5968 11.8619 22.6207C11.8619 25.4003 13.8401 27.7186 16.4639 28.2453C15.983 28.377 15.4752 28.4468 14.9528 28.4468C14.5824 28.4468 14.2234 28.4112 13.8735 28.3445C14.6033 30.6231 16.7215 32.2817 19.2323 32.3284C17.2686 33.8672 14.7954 34.784 12.107 34.784C11.6449 34.784 11.1872 34.7571 10.7393 34.7036C13.2767 36.3319 16.2928 37.2812 19.5322 37.2812C30.0839 37.2812 35.8544 28.54 35.8544 20.9586C35.8544 20.7101 35.8488 20.4624 35.8377 20.2168C36.9594 19.4082 37.9319 18.3981 38.7006 17.2477Z" fill="white"/>
</g>
</g>
</svg>
